<svg width="14" height="20" viewBox="0 0 14 20" fill="none" xmlns="http://www.w3.org/2000/svg">
<path d="M7 14.9231C8.79753 13.5043 10.1543 12.1409 11.0704 10.8328C11.9864 9.52547 12.4444 8.2735 12.4444 7.07692C12.4444 6.06838 12.2585 5.20923 11.8865 4.49949C11.5153 3.79043 11.0576 3.21778 10.5135 2.78154C9.96869 2.34598 9.37654 2.02974 8.73704 1.83282C8.09753 1.63658 7.51852 1.53846 7 1.53846C6.48148 1.53846 5.90247 1.63658 5.26296 1.83282C4.62346 2.02974 4.03165 2.34598 3.48756 2.78154C2.94277 3.21778 2.4844 3.79043 2.11244 4.49949C1.74119 5.20923 1.55556 6.06838 1.55556 7.07692C1.55556 8.2735 2.01358 9.52547 2.92963 10.8328C3.84568 12.1409 5.20247 13.5043 7 14.9231ZM7 16.8718C4.64938 15.1282 2.89506 13.4485 1.73704 11.8328C0.579013 10.2178 0 8.63248 0 7.07692C0 5.91453 0.211901 4.89299 0.635704 4.01231C1.05881 3.13231 1.60326 2.39316 2.26904 1.79487C2.93412 1.19658 3.68598 0.748034 4.52459 0.449231C5.36252 0.149744 6.18765 0 7 0C7.81235 0 8.63783 0.149744 9.47644 0.449231C10.3144 0.748034 11.0659 1.19658 11.731 1.79487C12.3967 2.39316 12.9415 3.13231 13.3653 4.01231C13.7884 4.89299 14 5.91453 14 7.07692C14 8.63248 13.421 10.2178 12.263 11.8328C11.1049 13.4485 9.35062 15.1282 7 16.8718ZM7 8.71795C7.50123 8.71795 7.92918 8.54291 8.28385 8.19282C8.63783 7.84205 8.81481 7.4188 8.81481 6.92308C8.81481 6.42735 8.63783 6.0041 8.28385 5.65333C7.92918 5.30325 7.50123 5.12821 7 5.12821C6.49877 5.12821 6.07081 5.30325 5.71615 5.65333C5.36217 6.0041 5.18518 6.42735 5.18518 6.92308C5.18518 7.4188 5.36217 7.84205 5.71615 8.19282C6.07081 8.54291 6.49877 8.71795 7 8.71795ZM0 20V18.4615H14V20H0Z" fill="#121212"/>
</svg>
