<svg width="20" height="20" viewBox="0 0 20 20" fill="none" xmlns="http://www.w3.org/2000/svg">
<path d="M14.0007 5.00053C14.0007 4.44825 14.4484 4.00053 15.0007 4.00053C15.553 4.00053 16.0007 4.44825 16.0007 5.00053C16.0007 5.55282 15.553 6.00053 15.0007 6.00053C14.4484 6.00053 14.0007 5.55282 14.0007 5.00053Z" fill="#121212"/>
<path fill-rule="evenodd" clip-rule="evenodd" d="M10.0007 5.25053C7.37732 5.25053 5.25067 7.37718 5.25067 10.0005C5.25067 12.6239 7.37732 14.7505 10.0007 14.7505C12.624 14.7505 14.7507 12.6239 14.7507 10.0005C14.7507 7.37718 12.624 5.25053 10.0007 5.25053ZM6.75067 10.0005C6.75067 8.20561 8.20575 6.75053 10.0007 6.75053C11.7956 6.75053 13.2507 8.20561 13.2507 10.0005C13.2507 11.7955 11.7956 13.2505 10.0007 13.2505C8.20575 13.2505 6.75067 11.7955 6.75067 10.0005Z" fill="#121212"/>
<path fill-rule="evenodd" clip-rule="evenodd" d="M15.2589 0.833549C11.7924 0.446109 8.20902 0.446109 4.74244 0.833549C2.73038 1.05843 1.10605 2.64344 0.869497 4.66597C0.454959 8.21026 0.454959 11.7908 0.869497 15.3351C1.10605 17.3576 2.73038 18.9426 4.74244 19.1675C8.20902 19.555 11.7924 19.555 15.2589 19.1675C17.271 18.9426 18.8953 17.3576 19.1319 15.3351C19.5464 11.7908 19.5464 8.21026 19.1319 4.66597C18.8953 2.64344 17.271 1.05843 15.2589 0.833549ZM4.90905 2.32427C8.2649 1.9492 11.7365 1.9492 15.0923 2.32427C16.4224 2.47293 17.4879 3.52254 17.642 4.84022C18.043 8.26874 18.043 11.7323 17.642 15.1609C17.4879 16.4785 16.4224 17.5281 15.0923 17.6768C11.7365 18.0519 8.2649 18.0519 4.90905 17.6768C3.57894 17.5281 2.51346 16.4785 2.35934 15.1609C1.95834 11.7323 1.95834 8.26874 2.35934 4.84022C2.51346 3.52254 3.57894 2.47293 4.90905 2.32427Z" fill="#121212"/>
</svg>
