<svg width="18" height="18" viewBox="0 0 18 18" fill="none" xmlns="http://www.w3.org/2000/svg">
<path d="M16.0484 8.725C15.9818 6.80833 15.2778 5.179 13.9364 3.837C12.5944 2.49567 10.9651 1.8 9.04844 1.75V0.25C10.2151 0.283333 11.3068 0.525 12.3234 0.975C13.3401 1.425 14.2318 2.029 14.9984 2.787C15.7651 3.54567 16.3734 4.43333 16.8234 5.45C17.2734 6.46667 17.5151 7.55833 17.5484 8.725H16.0484ZM12.0484 8.725C11.9818 7.925 11.6651 7.24167 11.0984 6.675C10.5318 6.10833 9.84844 5.8 9.04844 5.75V4.25C10.2651 4.3 11.3024 4.754 12.1604 5.612C13.0191 6.47067 13.4818 7.50833 13.5484 8.725H12.0484ZM16.4234 17.45C14.4901 17.45 12.5694 16.9873 10.6614 16.062C8.75277 15.1373 7.04844 13.925 5.54844 12.425C4.04844 10.925 2.8361 9.225 1.91144 7.325C0.986104 5.425 0.523438 3.5 0.523438 1.55C0.523438 1.25 0.623437 1 0.823437 0.8C1.02344 0.6 1.27344 0.5 1.57344 0.5H4.82344C5.0901 0.5 5.3191 0.579 5.51044 0.737C5.70244 0.895667 5.82344 1.1 5.87344 1.35L6.44844 4.3C6.48177 4.55 6.47344 4.775 6.42344 4.975C6.37344 5.175 6.2651 5.35 6.09844 5.5L3.79844 7.75C4.59844 9.08333 5.5441 10.2917 6.63544 11.375C7.72744 12.4583 8.96511 13.4 10.3484 14.2L12.5734 11.95C12.7401 11.7833 12.9361 11.6667 13.1614 11.6C13.3861 11.5333 13.6151 11.5167 13.8484 11.55L16.6234 12.125C16.8734 12.175 17.0778 12.2917 17.2364 12.475C17.3944 12.6583 17.4734 12.8833 17.4734 13.15V16.4C17.4734 16.7 17.3734 16.95 17.1734 17.15C16.9734 17.35 16.7234 17.45 16.4234 17.45ZM3.09844 6.325L4.87344 4.625C4.90677 4.59167 4.92777 4.554 4.93644 4.512C4.94444 4.47067 4.9401 4.43333 4.92344 4.4L4.49844 2.15C4.48177 2.1 4.45677 2.06233 4.42344 2.037C4.3901 2.01233 4.34844 2 4.29844 2H2.17344C2.12344 2 2.08577 2.01233 2.06044 2.037C2.03577 2.06233 2.02344 2.09167 2.02344 2.125C2.07344 2.80833 2.1861 3.504 2.36144 4.212C2.5361 4.92067 2.78177 5.625 3.09844 6.325ZM11.7484 14.9C12.4151 15.2167 13.1068 15.4583 13.8234 15.625C14.5401 15.7917 15.2151 15.8833 15.8484 15.9C15.8818 15.9 15.9111 15.8873 15.9364 15.862C15.9611 15.8373 15.9734 15.8083 15.9734 15.775V13.675C15.9734 13.625 15.9611 13.5833 15.9364 13.55C15.9111 13.5167 15.8734 13.4917 15.8234 13.475L13.7234 13.05C13.6901 13.0333 13.6568 13.0333 13.6234 13.05L13.5234 13.1L11.7484 14.9Z" fill="#121212"/>
</svg>
