<svg width="21" height="19" viewBox="0 0 21 19" fill="none" xmlns="http://www.w3.org/2000/svg">
<path fill-rule="evenodd" clip-rule="evenodd" d="M4.7868 11.0196C4.83058 11.0344 4.87476 11.0448 4.9189 11.0512C4.96703 11.1644 5.02923 11.3107 5.10179 11.4818C5.27886 11.8994 5.51745 12.4643 5.76373 13.0535C6.26597 14.2552 6.77259 15.4939 6.88447 15.8485C7.02298 16.2868 7.16939 16.5848 7.32923 16.7883C7.41187 16.8935 7.50745 16.9853 7.6193 17.0549C7.6756 17.0899 7.73507 17.1186 7.79715 17.14C7.79988 17.141 7.80262 17.1419 7.80535 17.1428C8.12536 17.2636 8.41712 17.2133 8.59979 17.1518C8.69754 17.1188 8.77662 17.0791 8.83267 17.0469C8.86124 17.0304 8.88539 17.0151 8.90465 17.0021L8.90919 16.9991L11.7354 15.2366L14.9999 17.7394C15.0481 17.7763 15.1006 17.8073 15.1563 17.8316C15.5485 18.0027 15.9282 18.0624 16.2855 18.0136C16.6421 17.9649 16.9253 17.8151 17.1361 17.6464C17.3425 17.4813 17.4824 17.2963 17.5696 17.1589C17.6141 17.0887 17.6475 17.0266 17.671 16.9791C17.6829 16.9552 17.6924 16.9346 17.6998 16.9181L17.7092 16.8963L17.7127 16.8877L17.7142 16.8841L17.7149 16.8824L17.7155 16.8808C17.7327 16.8379 17.7458 16.7935 17.7548 16.7482L20.7351 1.72274C20.7446 1.67469 20.7494 1.62581 20.7494 1.57682C20.7494 1.13681 20.5836 0.718409 20.1938 0.464515C19.8606 0.247518 19.4894 0.238177 19.2548 0.255982C19.0018 0.275189 18.7681 0.337656 18.6112 0.387572C18.5296 0.41355 18.4612 0.438614 18.4119 0.457735C18.3871 0.467345 18.3668 0.47559 18.3516 0.481878L18.3402 0.486665L1.62652 7.04321L1.62436 7.04399C1.6137 7.04786 1.60003 7.05297 1.58378 7.05929C1.55141 7.07189 1.50805 7.08965 1.4574 7.1126C1.35861 7.15738 1.22003 7.22734 1.07783 7.32473C0.850639 7.48031 0.328148 7.90641 0.416129 8.60971C0.486318 9.17078 0.870699 9.51537 1.10489 9.68107C1.23348 9.77206 1.35565 9.83713 1.44462 9.87949C1.48589 9.89913 1.57159 9.93395 1.60877 9.94905L1.61815 9.95287L4.7868 11.0196ZM18.9252 1.86786L18.9228 1.86888C18.9145 1.8725 18.9061 1.87596 18.8977 1.87928L2.16367 8.44378C2.15493 8.44721 2.14613 8.45047 2.13727 8.45357L2.12795 8.4571C2.11725 8.46127 2.09923 8.46858 2.0766 8.47884C2.06378 8.48465 2.05039 8.49099 2.03674 8.4978C2.05549 8.50836 2.07344 8.51754 2.08939 8.52513C2.1047 8.53242 2.11637 8.5374 2.12277 8.54003L5.2654 9.59802C5.32292 9.61738 5.37654 9.64304 5.42576 9.67397L15.8025 3.59948L15.8122 3.59374C15.8198 3.58927 15.8297 3.58353 15.8416 3.5768C15.8652 3.56345 15.8977 3.54568 15.9363 3.52603C16.0083 3.48938 16.1235 3.43497 16.2533 3.39485C16.3437 3.36692 16.6102 3.28823 16.8983 3.38064C17.0761 3.43767 17.2602 3.56028 17.3799 3.76798C17.4394 3.87117 17.4711 3.97483 17.4865 4.06972C17.5272 4.2192 17.5208 4.36681 17.4889 4.49424C17.4201 4.76875 17.2272 4.98287 17.0517 5.14665C16.9014 5.28706 14.956 7.16292 13.0369 9.01468C12.0798 9.93813 11.1325 10.8525 10.4245 11.5359L9.95943 11.9849L15.8314 16.4867C15.966 16.5349 16.0456 16.5325 16.0825 16.5274C16.1264 16.5214 16.1623 16.5045 16.199 16.4752C16.24 16.4424 16.2759 16.398 16.3027 16.3557L16.3038 16.354L19.1943 1.78102C19.1514 1.79133 19.108 1.80361 19.0662 1.81691C19.0189 1.83198 18.9798 1.84634 18.9539 1.85637C18.9411 1.86134 18.9319 1.86511 18.9269 1.86719L18.9252 1.86786ZM10.4639 14.2618L9.29241 13.3636L9.00855 15.1693L10.4639 14.2618ZM8.21773 11.5814L9.3827 10.4567C10.0908 9.77321 11.0382 8.85879 11.9953 7.93524L12.9678 6.997L6.44779 10.8138L6.48278 10.8963C6.66048 11.3154 6.90013 11.8827 7.14772 12.4751C7.33284 12.918 7.52643 13.3844 7.70276 13.8162L7.98579 12.0158C8.01308 11.8422 8.09788 11.692 8.21773 11.5814Z" fill="#121212"/>
</svg>
