<svg width="24" height="24" viewBox="0 0 24 24" fill="none" xmlns="http://www.w3.org/2000/svg">
<path fill-rule="evenodd" clip-rule="evenodd" d="M15.0215 3.34267C15.5299 3.25559 16.0992 3.22651 16.635 3.31715C17.5918 3.47904 18.4757 3.92376 19.1744 4.59052C19.6311 4.60085 20.0799 4.51088 20.477 4.38262C20.8131 4.27407 21.097 4.14299 21.296 4.03936C21.3949 3.98783 21.4713 3.94387 21.521 3.91411C21.5458 3.89925 21.5638 3.88801 21.5745 3.88122L21.5841 3.87516C21.8809 3.67743 22.2761 3.71591 22.529 3.96742C22.7819 4.21898 22.8226 4.6139 22.6264 4.9118C22.4187 5.2271 22.1303 5.78917 21.8073 6.41893C21.7565 6.51795 21.7048 6.61864 21.6525 6.72031C21.4672 7.08027 21.2772 7.44409 21.1001 7.75622C20.9889 7.95221 20.87 8.15118 20.7501 8.32312V8.5969C20.7577 9.60253 20.6424 10.6029 20.4083 11.5761C20.261 12.1885 20.0667 12.7901 19.8265 13.3754C19.2041 14.8921 18.2857 16.2695 17.1249 17.4273C15.9642 18.5851 14.5844 19.4999 13.0662 20.1184C11.5492 20.7364 9.9245 21.0462 8.28665 21.0298C5.91234 21.0319 3.58798 20.3478 1.59326 19.0599C1.29945 18.8702 1.17576 18.5026 1.29509 18.1739C1.41443 17.8451 1.74512 17.6425 2.09219 17.6855C2.39255 17.7226 2.69496 17.7408 2.99762 17.7398C4.08507 17.7367 5.15181 17.4965 6.12567 17.0438C5.81612 16.9029 5.52058 16.7292 5.24443 16.5244C4.43271 15.9225 3.8288 15.0825 3.51673 14.1214C3.43564 13.8716 3.49108 13.5977 3.66289 13.3991C3.66597 13.3955 3.66908 13.392 3.67221 13.3885C3.48869 13.2249 3.31696 13.0467 3.15886 12.855C2.44754 11.9928 2.05587 10.9114 2.05009 9.79367L2.05007 9.78979L2.05008 9.73979C2.05008 9.47393 2.19083 9.22793 2.42003 9.09321C2.47813 9.05906 2.53972 9.03336 2.60307 9.01611C2.26473 8.34103 2.08879 7.59559 2.09007 6.83933C2.08968 5.98256 2.31347 5.14059 2.73923 4.39709C2.86214 4.18246 3.08297 4.04222 3.3295 4.02224C3.57603 4.00227 3.81656 4.10512 3.97242 4.29717C4.93498 5.48318 6.13626 6.45343 7.49825 7.1449C8.19839 7.50036 8.93294 7.77806 9.68874 7.97449C10.1125 8.08462 10.5429 8.16921 10.9777 8.22763C10.9585 7.50438 11.1013 6.78151 11.4011 6.11357C11.8407 5.13375 12.5932 4.32757 13.5404 3.82148C13.9416 3.60715 14.4741 3.43644 15.0215 3.34267ZM3.74335 10.8902C3.873 11.2551 4.06586 11.5974 4.31592 11.9005C4.80724 12.496 5.48919 12.9036 6.24641 13.0542C6.58369 13.1213 6.83213 13.4092 6.84916 13.7527C6.86618 14.0961 6.64743 14.4072 6.31843 14.5073C6.04594 14.5902 5.76676 14.648 5.48441 14.6801C5.67099 14.9206 5.89047 15.1361 6.13787 15.3195C6.69906 15.7356 7.376 15.9665 8.07451 15.9799C8.39143 15.986 8.6703 16.1907 8.77112 16.4912C8.87195 16.7917 8.77296 17.1232 8.52386 17.3192C7.47469 18.1447 6.26149 18.7204 4.97594 19.0143C6.04142 19.3555 7.15887 19.5312 8.28916 19.5298L8.29786 19.5298C9.73792 19.5447 11.1665 19.2726 12.5002 18.7293C13.8339 18.186 15.046 17.3823 16.0656 16.3653C17.0853 15.3483 17.892 14.1383 18.4388 12.806C18.6498 12.2917 18.8205 11.7633 18.9499 11.2254C19.1557 10.3696 19.257 9.48992 19.2501 8.60566L19.2501 8.59979V8.06979C19.2501 7.88794 19.3161 7.71228 19.436 7.57551C19.5053 7.49647 19.6264 7.31391 19.7955 7.01601C19.9561 6.73288 20.1339 6.39298 20.3188 6.03379C20.33 6.01207 20.3412 5.99024 20.3525 5.9683C19.8729 6.07245 19.3293 6.12703 18.7595 6.06545C18.579 6.04595 18.4118 5.96166 18.2887 5.82822C17.7858 5.28288 17.1162 4.91988 16.3848 4.79614C16.0602 4.74123 15.6679 4.7538 15.2748 4.82114C14.8477 4.8943 14.476 5.02231 14.2473 5.14448C13.593 5.49405 13.0733 6.0509 12.7696 6.72768C12.4659 7.40447 12.3954 8.16292 12.5692 8.88407C12.6246 9.11399 12.5683 9.35656 12.4174 9.53859C12.2664 9.72062 12.0384 9.82078 11.8022 9.80884C10.9588 9.76618 10.1243 9.63753 9.31142 9.42626C8.45152 9.20277 7.61579 8.88682 6.81921 8.4824C5.64643 7.88699 4.57838 7.1099 3.65354 6.18221C3.61135 6.39782 3.58993 6.61785 3.59008 6.8393L3.59007 6.84122C3.58903 7.39193 3.72418 7.93437 3.98349 8.42021C4.2428 8.90606 4.61822 9.32026 5.07633 9.62591C5.35436 9.81141 5.47608 10.1585 5.37483 10.477C5.27358 10.7955 4.97378 11.0086 4.63968 10.9995C4.33708 10.9913 4.03702 10.9545 3.74335 10.8902Z" fill="#121212"/>
</svg>
